<svg xmlns="http://www.w3.org/2000/svg" viewBox="0 0 128 128">
  <rect width="128" height="128" fill="#e85d00" />
  <path d="M6 12a6 6 0 0 1 6-6h24a6 6 0 0 1 6 6v116H6V12Z" fill="#ff7417" />
  <path d="M48 12a6 6 0 0 1 6-6h24a6 6 0 0 1 6 6v116H48V12Z" fill="#ff7417" />
  <path d="M90 12a6 6 0 0 1 6-6h34a6 6 0 0 1 6 6v116H90V12Z" fill="#ff7417" />
  <g fill="#fffaf3">
    <rect x="14" y="30" width="12" height="68" rx="1" />
    <rect x="47" y="30" width="12" height="68" rx="1" />
    <rect x="22" y="57" width="34" height="12" rx="1" />
    <rect x="68" y="30" width="12" height="68" rx="1" />
    <rect x="104" y="30" width="12" height="68" rx="1" />
    <path d="M78 30h12l26 68h-12L78 30Z" />
  </g>
</svg>
